Coordinates
nRows=129
nColumns=2
inDegrees=yes
endheader
time	ankle_angle_r	
2.06237	 28.625488	
2.12486	 28.488159	
2.18736	 28.503418	
2.24986	 28.579712	
2.31235	 28.457642	
2.37485	 28.625488	
2.43734	 28.549194	
2.49984	 28.564453	
2.56234	 28.594971	
2.62483	 28.472900	
2.68733	 28.533936	
2.74982	 28.594971	
2.81232	 28.518677	
2.87482	 28.625488	
2.93731	 28.625488	
2.99981	 28.594971	
3.0623	 28.610229	
3.1248	 28.488159	
3.1873	 28.564453	
3.24979	 28.472900	
3.31229	 28.472900	
3.37478	 28.656006	
3.43728	 28.594971	
3.49978	 28.564453	
3.56227	 28.640747	
3.62477	 28.488159	
3.68726	 28.564453	
3.74976	 28.518677	
3.81226	 28.518677	
3.87475	 28.625488	
3.93725	 28.594971	
3.99974	 28.625488	
4.06224	 28.564453	
4.12474	 28.472900	
4.18723	 28.594971	
4.24973	 28.503418	
4.31222	 28.594971	
4.37472	 28.625488	
4.43722	 28.610229	
4.49971	 28.625488	
4.56221	 28.503418	
4.6247	 28.518677	
4.6872	 28.549194	
4.7497	 28.503418	
4.81219	 28.549194	
4.87469	 28.533936	
4.93718	 28.564453	
4.99968	 28.564453	
5.06218	 28.457642	
5.12467	 28.533936	
5.18717	 28.579712	
5.24966	 28.533936	
5.31216	 28.640747	
5.37466	 28.503418	
5.43715	 28.579712	
5.49965	 28.610229	
5.56214	 28.457642	
5.62464	 28.549194	
5.68714	 28.457642	
5.74963	 28.503418	
5.81213	 28.640747	
5.87462	 28.549194	
5.93712	 28.549194	
5.99962	 28.594971	
6.06211	 28.457642	
6.12461	 28.594971	
6.1871	 28.518677	
6.2496	 28.549194	
6.3121	 28.594971	
6.37459	 28.610229	
6.43709	 28.594971	
6.49958	 28.579712	
6.56208	 28.503418	
6.62458	 28.533936	
6.68707	 28.518677	
6.74957	 28.594971	
6.81206	 28.533936	
6.87456	 28.640747	
6.93706	 28.656006	
6.99955	 28.472900	
7.06205	 28.518677	
7.12454	 28.610229	
7.18704	 28.472900	
7.24954	 28.701782	
7.31203	 28.564453	
7.37453	 28.549194	
7.43702	 28.594971	
7.49952	 28.518677	
7.56202	 28.533936	
7.62451	 28.518677	
7.68701	 28.503418	
7.7495	 28.640747	
7.812	 28.518677	
7.8745	 28.549194	
7.93699	 28.594971	
7.99949	 28.472900	
8.06198	 28.564453	
8.12448	 28.503418	
8.18698	 28.564453	
8.24947	 28.610229	
8.31197	 28.533936	
8.37446	 28.610229	
8.43696	 28.594971	
8.49946	 28.518677	
8.56195	 28.549194	
8.62445	 28.533936	
8.68694	 28.518677	
8.74944	 28.610229	
8.81194	 28.533936	
8.87443	 28.610229	
8.93693	 28.503418	
8.99942	 28.518677	
9.06192	 28.594971	
9.12442	 28.503418	
9.18691	 28.625488	
9.24941	 28.656006	
9.3119	 28.656006	
9.3744	 28.671265	
9.4369	 28.564453	
9.49939	 28.533936	
9.56189	 28.518677	
9.62438	 28.457642	
9.68688	 28.594971	
9.74938	 28.564453	
9.81187	 28.564453	
9.87437	 28.671265	
9.93686	 28.518677	
9.99936	 28.549194	
10.0619	 28.549194	
